<svg class="icon" style="width: 1em;height: 1em;vertical-align: middle;fill: currentColor;overflow: hidden;" viewBox="0 0 1024 1024" version="1.1" xmlns="http://www.w3.org/2000/svg" p-id="11015"><path d="M705.2 524l-264-264-120 118-9.6-9.6 129.6-127.2 273.6 273.6z" fill="#4A555F" p-id="11016"></path><path d="M648 457.2l-9.6-9.2 168.8-168.8 166.4 166.8-9.2 9.2-157.2-157.2z" fill="#4A555F" p-id="11017"></path><path d="M942.4 628.4V456l-135.2-135.2-132 132 21.6 21.6-16 16-16 16-224-224-116.4 114.8c3.6 14 5.6 28.4 5.6 43.2 0 3.2 0 6.4-0.4 9.2-2.8 53.6-30 103.2-73.6 134.8-10 7.2-17.6 16.8-22 28-2 5.2-3.6 10.4-4.4 16h712.8z" fill="#71CDE1" p-id="11018"></path><path d="M643.2 295.2c-39.6 0-71.6-32-71.6-71.6s32-71.6 71.6-71.6 71.6 32 71.6 71.6-32 71.6-71.6 71.6z m0-129.6c-32 0-58 26-58 58s26 58 58 58 58-26 58-58-26-58-58-58z" fill="#4A555F" p-id="11019"></path><path d="M643.2 266c-23.2 0-42-18.8-42-42s18.8-42 42-42 42 18.8 42 42-18.8 42-42 42z" fill="#FFD552" p-id="11020"></path><path d="M975.6 816.4H248l-21.6-144-3.6-30c-0.8-11.2 0.8-22.4 5.2-32.4 5.2-12.4 13.6-23.2 24-30.8 41.6-30 68-78.4 70.8-129.6 0-3.2 0.4-6 0.4-8.8 0-14-1.6-28-5.2-41.6-2-8-4.4-15.6-7.6-23.2-18-44-53.2-78.4-97.2-95.2l-57.6-22V67.6h820v748.8z m-716.4-13.6h703.2V81.2H168.8v168.4l49.2 18.8c47.2 18 85.2 55.2 104.4 102.4 3.2 8 6 16.4 8.4 24.8 3.6 14.8 5.6 29.6 5.6 44.8 0 3.2 0 6.4-0.4 9.6-2.8 55.2-31.6 107.6-76.4 139.6-8.8 6.4-15.6 14.8-19.6 24.8-3.2 8-4.8 17.2-4 26l3.6 29.6 19.6 132.8z" fill="#4A555F" p-id="11021"></path><path d="M155.2 999.2c-24 0-46.8-10-62.8-27.6s-24.4-41.2-22.4-64.8l36-259.2c2.4-31.6-12.4-62.8-39.2-81.2C24.8 538 0 490.8 0 440.4c0-62 36.8-117.2 94-140.8l9.2-3.6 0.4 136.8c0 12 7.6 22.4 19.2 26.4l39.2 12.8c10 3.2 20.8 0.4 28-6.8 5.2-5.2 8-12 8-19.6l-0.4-150.4 9.2 3.6c58.4 22.4 98 79.6 98 142.4 0 48.8-23.6 95.2-63.2 123.6-25.2 18.4-39.6 48.8-36.8 80l36 262.4c2 24-6 47.6-22.4 65.2-16.4 16.8-39.2 26.8-63.2 26.8zM90 316C43.2 339.6 13.2 387.2 13.2 440.4c0 46 22.8 88.8 60.8 114.8 30.8 21.2 48 56.8 45.2 93.6l-36 259.2c-1.6 20 5.2 39.6 18.8 54.4 14 15.2 32.8 23.2 53.2 23.2 20.4 0 39.2-8.4 53.2-23.2 14-15.2 20.4-34.4 18.8-54.8l-36-262.4c-2.8-36 13.2-71.2 42.4-92 36.4-26 58-68.4 58-112.8 0-54-32-103.6-80.4-126l0.4 130.8c0 10.8-4.4 21.2-12 28.8-10.8 10.8-27.2 14.8-41.6 10l-39.2-12.8c-16.8-5.6-28.4-21.2-28.4-38.8L90 316z" fill="#4A555F" p-id="11022"></path><path d="M155.2 969.6c-16 0-30.4-6.4-41.2-18-10.8-11.6-16-26.4-14.8-42l36-259.2c3.6-42.4-16.4-84-52-108.4-33.6-22.8-53.6-60.8-53.6-101.6 0-37.6 16.8-72 44.4-94.8l0.4 87.2c0 24.8 16 46.4 39.6 54l39.2 12.8c5.6 2 11.6 2.8 17.6 2.8 15.2 0 29.6-6 40.4-16.8 10.8-10.8 16.8-25.2 16.8-40.4l-0.4-102c29.6 22.8 48 58.8 48 97.6 0 39.2-19.2 76.8-51.2 99.6-33.6 24.4-52.4 64.8-49.2 106l36 263.2c1.2 15.6-4 30.8-14.8 42-10.8 11.6-25.2 18-41.2 18z" fill="#E0E0E0" p-id="11023"></path><path d="M155.2 976.4c-2 0-4 0-6-0.4-12.8-1.2-25.2-6.4-34.8-14.8-15.6-13.2-23.2-32.4-22-52.4l32.4-228.8c1.6-15.2 14.8-26.8 30.4-26.8 15.6 0 28.4 11.6 30.4 26.8l32 228.4c1.2 18-4.4 34.8-16.4 47.6-12 13.2-28 20.4-46 20.4z m0-310c-8.8 0-16 6.4-17.2 15.2l-32.4 228.8c-1.2 15.2 5.2 30.4 17.2 40.8 7.6 6.4 17.2 10.8 27.2 11.6 1.6 0 3.2 0.4 4.8 0.4 14 0 26.8-5.6 36.4-16 9.2-10 14-23.2 12.8-37.2l-32-228c-0.4-8.8-8-15.6-16.8-15.6z" fill="#4A555F" p-id="11024"></path><path d="M152.4 932.8c-18.8 0-34-15.2-34-34s15.2-34 34-34 34 15.2 34 34-15.2 34-34 34z m0-54.8c-5.6 0-10.8 2-14.8 6s-6 9.2-6 14.8c0 11.6 9.2 20.8 20.8 20.8 11.6 0 20.8-9.2 20.8-20.8 0-11.6-9.6-20.8-20.8-20.8zM1024 835.6h-13.2v-13.2h13.2v13.2z m0-26.4h-13.2V796h13.2v13.2z m0-26.8h-13.2v-13.2h13.2v13.2z m0-26.4h-13.2v-13.2h13.2v13.2z m0-26.8h-13.2V716h13.2v13.2z m0-26.4h-13.2v-13.2h13.2v13.2z m0-26.4h-13.2v-13.2h13.2v13.2z m0-26.8h-13.2v-13.2h13.2v13.2z m0-26.4h-13.2v-13.2h13.2v13.2z m0-26.8h-13.2v-13.2h13.2v13.2z m0-26.4h-13.2v-13.2h13.2v13.2z m0-26.4h-13.2v-13.2h13.2v13.2z m0-26.8h-13.2v-13.2h13.2v13.2z m0-26.4h-13.2v-13.2h13.2v13.2z m0-26.8h-13.2v-13.2h13.2v13.2z m0-26.4h-13.2V424h13.2v13.2z m0-26.8h-13.2v-13.2h13.2v13.2z m0-26.4h-13.2v-13.2h13.2V384z m0-26.4h-13.2V344h13.2v13.6z m0-26.8h-13.2v-13.2h13.2v13.2z m0-26.4h-13.2v-13.2h13.2v13.2z m0-26.8h-13.2v-13.2h13.2v13.2z m0-26.4h-13.2v-13.2h13.2v13.2z m0-26.8h-13.2v-13.2h13.2v13.2z m0-26.4h-13.2v-13.2h13.2v13.2z m0-26.4h-13.2v-13.2h13.2v13.2z m0-26.8h-13.2v-13.2h13.2v13.2z m0-26.4h-13.2v-13.2h13.2v13.2z m0-26.8h-13.2v-13.2h13.2v13.2z m0-26.4h-13.2V52h13.2v13.2zM333.2 38H320V24.8h13.2v13.2z m-26.8 0h-13.2V24.8h13.2v13.2z m-26.4 0h-13.2V24.8H280v13.2z m-26.4 0H240V24.8h13.2v13.2z m-26.8 0h-13.2V24.8h13.2v13.2z m-26.4 0h-13.2V24.8h13.2v13.2z m-26.8 0h-13.2V24.8h13.2v13.2z m-26.4 0h-13.2V24.8h13.2v13.2z m-26.8 0h-13.2V24.8h13.2v13.2z m664.4 0h-13.2V24.8h13.2v13.2z m-26.4 0h-13.2V24.8h13.2v13.2z m-26.8 0h-13.2V24.8h13.2v13.2z m-26.4 0H692V24.8h13.2v13.2z m-26.8 0h-13.2V24.8h13.2v13.2z m-26.4 0h-13.2V24.8h13.2v13.2z m-26.8 0H612V24.8h13.2v13.2z m-26.4 0h-13.2V24.8h13.2v13.2z m-26.4 0h-13.2V24.8h13.2v13.2z m-26.8 0h-13.2V24.8h13.2v13.2z m-26.4 0h-13.2V24.8h13.2v13.2z m-26.8 0h-13.2V24.8h13.2v13.2z m-26.4 0h-13.2V24.8h13.2v13.2z m-26.8 0h-13.2V24.8h13.2v13.2z m-26.4 0h-13.2V24.8h13.2v13.2z m-26.4 0h-13.2V24.8h13.2v13.2z m-26.8 0h-13.2V24.8h13.2v13.2z m664.4 0h-13.2V24.8h13.2v13.2z m-26.8 0H984V24.8h13.2v13.2z m-26.4 0h-13.2V24.8h13.2v13.2z m-26.8 0h-13.2V24.8h13.2v13.2z m-26.4 0h-13.2V24.8h13.2v13.2z m-26.4 0h-13.2V24.8h13.2v13.2z m-26.8 0h-13.2V24.8h13.2v13.2z m-26.4 0h-13.2V24.8h13.2v13.2z m-26.8 0h-13.2V24.8h13.2v13.2zM452.4 860.8v-13.2h13.2v13.2h-13.2z m-13.2 0h-13.2v-13.2h13.2v13.2z m-26.4 0h-13.2v-13.2h13.2v13.2z m-26.8 0h-13.2v-13.2h13.2v13.2z m-26.4 0h-13.2v-13.2h13.2v13.2z m-26.8 0h-13.2v-13.2h13.2v13.2z m-26.4 0h-13.2v-13.2h13.2v13.2z m-26.4 0h-13.2v-13.2H280v13.2z m544.4 0v-13.2h13.2v13.2h-13.2z m-13.2 0h-13.2v-13.2h13.2v13.2z m-26.4 0h-13.2v-13.2h13.2v13.2z m-26.8 0h-13.2v-13.2h13.2v13.2z m-26.4 0h-13.2v-13.2h13.2v13.2z m-26.8 0h-13.2v-13.2h13.2v13.2z m-26.4 0h-13.2v-13.2h13.2v13.2z m-26.8 0h-13.2v-13.2h13.2v13.2z m-26.4 0H612v-13.2h13.2v13.2z m-26.4 0h-13.2v-13.2h13.2v13.2z m-26.8 0h-13.2v-13.2h13.2v13.2z m-26.4 0h-13.2v-13.2h13.2v13.2z m-26.8 0h-13.2v-13.2h13.2v13.2z m-26.4 0h-13.2v-13.2h13.2v13.2z m531.2 0h-13.2v-13.2h13.2v13.2z m-26.4 0H984v-13.2h13.2v13.2z m-26.4 0h-13.2v-13.2h13.2v13.2z m-26.8 0h-13.2v-13.2h13.2v13.2z m-26.4 0H904v-13.2h13.2v13.2z m-26.8 0h-13.2v-13.2h13.2v13.2z m-26.4 0h-13.2v-13.2h13.2v13.2zM120.8 251.6h-13.2v-13.2h13.2v13.2z m0-26.8h-13.2v-13.2h13.2v13.2z m0-26.4h-13.2v-13.2h13.2v13.2z m0-26.4h-13.2v-13.2h13.2V172z m0-26.8h-13.2V132h13.2v13.2z m0-26.4h-13.2v-13.2h13.2v13.2z m0-26.8h-13.2v-13.2h13.2V92z m0-26.4h-13.2v-13.2h13.2v13.2zM230.8 646.8h738.4v13.2H230.8z" fill="#4A555F" p-id="11025"></path></svg>